<svg width="18" height="18" viewBox="0 0 18 18" fill="none" xmlns="http://www.w3.org/2000/svg">
<path d="M1.29375 16.7064C1.53125 16.9439 1.76875 17.0626 2.125 17.0626C2.48125 17.0626 2.71875 16.9439 2.95625 16.7064L9.25 10.4126L15.5437 16.7064C15.7812 16.9439 16.1375 17.0626 16.375 17.0626C16.6125 17.0626 16.9688 16.9439 17.2062 16.7064C17.6812 16.2314 17.6812 15.5189 17.2062 15.0439L10.9125 8.75012L17.2062 2.45637C17.6812 1.98137 17.6812 1.26887 17.2062 0.793872C16.7312 0.318872 16.0187 0.318872 15.5437 0.793872L9.25 7.08762L2.95625 0.793872C2.48125 0.318872 1.76875 0.318872 1.29375 0.793872C0.81875 1.26887 0.81875 1.98137 1.29375 2.45637L7.5875 8.75012L1.29375 15.0439C0.81875 15.5189 0.81875 16.2314 1.29375 16.7064Z" fill="black"/>
</svg>
