<svg width="20" height="20" viewBox="0 0 20 20" fill="none" xmlns="http://www.w3.org/2000/svg">
<path d="M10 15.8334C12.7583 15.8334 15 13.5917 15 10.8334V6.66669C15 3.90835 12.7583 1.66669 10 1.66669C7.24167 1.66669 5 3.90835 5 6.66669V10.8334C5 13.5917 7.24167 15.8334 10 15.8334Z" stroke="white" stroke-width="1.5" stroke-linecap="round" stroke-linejoin="round"/>
<path d="M2.5 9.16669V10.8334C2.5 14.975 5.85833 18.3334 10 18.3334C14.1417 18.3334 17.5 14.975 17.5 10.8334V9.16669" stroke="white" stroke-width="1.5" stroke-linecap="round" stroke-linejoin="round"/>
<path d="M7.59167 6.23334C9.07501 5.69167 10.6917 5.69167 12.175 6.23334" stroke="white" stroke-width="1.5" stroke-linecap="round" stroke-linejoin="round"/>
<path d="M8.35828 8.73335C9.35828 8.45835 10.4166 8.45835 11.4166 8.73335" stroke="white" stroke-width="1.5" stroke-linecap="round" stroke-linejoin="round"/>
</svg>
