<svg width="34" height="34" viewBox="0 0 34 34" fill="none" xmlns="http://www.w3.org/2000/svg">
<g clip-path="url(#clip0_0_1275)">
<path d="M5.0955 20.2634C4.24988 20.2634 3.52285 19.9644 2.91442 19.3663C2.30598 18.7578 2.00177 18.0256 2.00177 17.1697C2.00177 16.3241 2.30598 15.6022 2.91442 15.0041C3.52285 14.3957 4.24988 14.0914 5.0955 14.0914C5.94113 14.0914 6.66815 14.3957 7.27659 15.0041C7.88502 15.6022 8.18924 16.3241 8.18924 17.1697C8.18924 17.7369 8.04487 18.2577 7.75612 18.732C7.47768 19.1961 7.10643 19.5674 6.64237 19.8458C6.17831 20.1242 5.66269 20.2634 5.0955 20.2634ZM16.9962 20.2634C16.1506 20.2634 15.4235 19.9644 14.8151 19.3663C14.2067 18.7578 13.9024 18.0256 13.9024 17.1697C13.9024 16.3241 14.2067 15.6022 14.8151 15.0041C15.4235 14.3957 16.1506 14.0914 16.9962 14.0914C17.8418 14.0914 18.5688 14.3957 19.1773 15.0041C19.7857 15.6022 20.0899 16.3241 20.0899 17.1697C20.0899 17.7369 19.9455 18.2577 19.6568 18.732C19.3784 19.1961 19.0071 19.5674 18.5431 19.8458C18.079 20.1242 17.5634 20.2634 16.9962 20.2634ZM28.8969 20.2634C28.0512 20.2634 27.3242 19.9644 26.7158 19.3663C26.1073 18.7578 25.8031 18.0256 25.8031 17.1697C25.8031 16.3241 26.1073 15.6022 26.7158 15.0041C27.3242 14.3957 28.0512 14.0914 28.8969 14.0914C29.7425 14.0914 30.4695 14.3957 31.078 15.0041C31.6864 15.6022 31.9906 16.3241 31.9906 17.1697C31.9906 17.7369 31.8462 18.2577 31.5575 18.732C31.279 19.1961 30.9078 19.5674 30.4437 19.8458C29.9797 20.1242 29.4641 20.2634 28.8969 20.2634Z" fill="black"/>
</g>
<defs>
<clipPath id="clip0_0_1275">
<rect width="33.1055" height="33.1055" fill="white" transform="translate(0.681641 0.42395)"/>
</clipPath>
</defs>
</svg>
