<svg width="36" height="25" viewBox="0 0 36 25" fill="none" xmlns="http://www.w3.org/2000/svg">
<g clip-path="url(#clip0_0_1415)">
<path d="M31.9011 25.0179H35.4964V0H32.1384C32.0654 0.0036478 31.9922 0.0036478 31.9191 0V11.1866H28.3885L26.7203 6.02931C26.5841 5.55074 26.2944 5.12947 25.8953 4.82951C25.4963 4.52954 25.0096 4.36729 24.5092 4.36741H24.3726C23.8951 4.36783 23.4303 4.52094 23.0471 4.80412C22.6638 5.0873 22.3823 5.48553 22.2442 5.93996L19.7275 14.0672L17.2108 6.03288C17.0749 5.55397 16.7854 5.13229 16.3863 4.83197C15.9872 4.53165 15.5003 4.36913 14.9997 4.36913C14.4992 4.36913 14.0123 4.53165 13.6132 4.83197C13.2141 5.13229 12.9245 5.55397 12.7886 6.03288L10.2072 14.1816L7.6546 6.03288C7.5187 5.55397 7.22917 5.13229 6.83005 4.83197C6.43094 4.53165 5.94407 4.36913 5.4435 4.36913C4.94294 4.36913 4.45607 4.53165 4.05695 4.83197C3.65783 5.13229 3.36831 5.55397 3.23241 6.03288L0.5 14.5425C1.84823 14.5604 4.71007 14.1458 5.4435 12.1944L8.00693 20.3717C8.14283 20.8506 8.43236 21.2723 8.83148 21.5726C9.2306 21.8729 9.71746 22.0354 10.218 22.0354C10.7186 22.0354 11.2055 21.8729 11.6046 21.5726C12.0037 21.2723 12.2932 20.8506 12.4291 20.3717L14.9746 12.223L17.538 20.3717C17.6739 20.8506 17.9634 21.2723 18.3625 21.5726C18.7617 21.8729 19.2485 22.0354 19.7491 22.0354C20.2497 22.0354 20.7365 21.8729 21.1357 21.5726C21.5348 21.2723 21.8243 20.8506 21.9602 20.3717L24.5416 12.3374L25.0054 13.817C25.1311 14.2132 25.3774 14.5608 25.7104 14.8117C26.0433 15.0627 26.4465 15.2047 26.8641 15.218H31.8975L31.9011 25.0179Z" fill="url(#paint0_linear_0_1415)"/>
</g>
<defs>
<linearGradient id="paint0_linear_0_1415" x1="17.9982" y1="0" x2="17.9982" y2="25.0179" gradientUnits="userSpaceOnUse">
<stop stop-color="white"/>
<stop offset="1" stop-color="#999999"/>
</linearGradient>
<clipPath id="clip0_0_1415">
<rect width="35" height="25" fill="white" transform="translate(0.5)"/>
</clipPath>
</defs>
</svg>
