p<svg width="32" height="33" viewBox="0 0 32 33" fill="none" xmlns="http://www.w3.org/2000/svg">
<path d="M27.3413 24.7676C27.2005 24.9098 23.2418 28.2435 15.9842 28.2435C8.72667 28.2435 4.79438 24.9276 4.62725 24.7854C4.52191 24.6956 4.43514 24.5857 4.37193 24.462C4.3087 24.3383 4.27027 24.2032 4.25883 24.0645C4.24739 23.9257 4.26316 23.786 4.30525 23.6534C4.34734 23.5209 4.4149 23.398 4.50408 23.2919C4.6878 23.0771 4.94812 22.9444 5.22828 22.9227C5.50842 22.9011 5.78567 22.9922 5.99958 23.1763C6.06116 23.2207 9.59754 26.1188 15.9754 26.1188C22.3533 26.1188 25.9161 23.203 25.9513 23.1763C26.1676 22.9939 26.4458 22.9039 26.7266 22.9254C27.0076 22.947 27.2691 23.0785 27.4556 23.2919C27.6351 23.5034 27.7247 23.7781 27.7049 24.0561C27.6851 24.3341 27.5576 24.593 27.3501 24.7765L27.3413 24.7676ZM9.58874 6.36556C9.60466 6.07937 9.73205 5.81118 9.94309 5.61961C10.1541 5.42804 10.4315 5.32867 10.7148 5.34322C10.9774 5.35829 11.2252 5.4711 11.4104 5.65988C11.5956 5.84866 11.7051 6.10004 11.7177 6.36556V20.5893C11.7177 20.8746 11.6055 21.1482 11.4059 21.35C11.2063 21.5517 10.9356 21.665 10.6532 21.665C10.3709 21.665 10.1002 21.5517 9.90051 21.35C9.70093 21.1482 9.58874 20.8746 9.58874 20.5893V6.36556ZM14.955 5.83217C14.955 5.54688 15.0672 5.27328 15.2667 5.07155C15.4664 4.86982 15.7371 4.75649 16.0194 4.75649C16.3017 4.75649 16.5725 4.86982 16.7722 5.07155C16.9717 5.27328 17.0839 5.54688 17.0839 5.83217V21.3005C17.0839 21.5858 16.9717 21.8594 16.7722 22.0611C16.5725 22.2629 16.3017 22.3762 16.0194 22.3762C15.7371 22.3762 15.4664 22.2629 15.2667 22.0611C15.0672 21.8594 14.955 21.5858 14.955 21.3005V5.83217ZM20.2333 6.36556C20.2333 6.08027 20.3454 5.80667 20.545 5.60494C20.7446 5.40321 21.0154 5.28988 21.2976 5.28988C21.58 5.28988 21.8507 5.40321 22.0504 5.60494C22.2499 5.80667 22.3621 6.08027 22.3621 6.36556V20.5893C22.3621 20.8746 22.2499 21.1482 22.0504 21.35C21.8507 21.5517 21.58 21.665 21.2976 21.665C21.0154 21.665 20.7446 21.5517 20.545 21.35C20.3454 21.1482 20.2333 20.8746 20.2333 20.5893V6.36556ZM28.001 0.498247H4.00265C3.47974 0.494735 2.96128 0.595488 2.47695 0.794738C1.99263 0.993988 1.55195 1.28782 1.18015 1.65941C0.808353 2.031 0.512736 2.47306 0.310226 2.96026C0.107717 3.44747 0.0022933 3.97026 -8.96557e-06 4.49869V28.5013C0.0022933 29.0297 0.107717 29.5525 0.310226 30.0397C0.512736 30.527 0.808353 30.969 1.18015 31.3406C1.55195 31.7122 1.99263 32.0061 2.47695 32.2053C2.96128 32.4045 3.47974 32.5053 4.00265 32.5018H28.001C28.5232 32.5053 29.0409 32.4048 29.5247 32.2061C30.0084 32.0074 30.4487 31.7144 30.8204 31.3438C31.1921 30.9731 31.4879 30.5321 31.6909 30.0459C31.894 29.5597 32.0002 29.0379 32.0037 28.5102V4.49869C32.0014 3.971 31.8962 3.44895 31.6943 2.96233C31.4923 2.47571 31.1975 2.03405 30.8267 1.66257C30.4558 1.2911 30.0162 0.997077 29.5328 0.797301C29.0495 0.597526 28.532 0.495907 28.0098 0.498247" fill="white"/>
</svg>
